# xmcd CD database file
#
# Track frame offsets:
#	150
#	62412
#	126359
#	188781
#
# Disc length: 3280 seconds
#
# Revision: 0
# Processed by: cddbd v1.5.2PL0 Copyright (c) Steve Scherf et al.
# Submitted via: CDex 1.51
#
DISCID=310cce04
DTITLE=Clayton, Buck - Jam Session  - How hi the fi
DYEAR=1955
DGENRE=Jazz
TTITLE0=How hi the fi
TTITLE1=Blue moon
TTITLE2=Sentimental journey
TTITLE3=Moten swing
EXTD=YEAR: 1955
EXTT0=
EXTT1=
EXTT2=
EXTT3=
PLAYORDER=
